<svg width="20" height="20" viewBox="0 0 20 20" fill="none" xmlns="http://www.w3.org/2000/svg">
<path fill-rule="evenodd" clip-rule="evenodd" d="M0.416504 2.50002C0.416504 2.03978 0.7896 1.66669 1.24984 1.66669H2.70817C3.09056 1.66669 3.42388 1.92693 3.51662 2.29791L3.98382 4.16669H18.3332C18.5898 4.16669 18.8321 4.28491 18.99 4.48718C19.1479 4.68944 19.2039 4.95318 19.1416 5.20213L17.0583 13.5355C16.9655 13.9064 16.6322 14.1667 16.2498 14.1667H5.4165C5.03411 14.1667 4.7008 13.9064 4.60805 13.5355L2.05752 3.33335H1.24984C0.7896 3.33335 0.416504 2.96026 0.416504 2.50002ZM4.40048 5.83335L6.06715 12.5H15.5992L17.2659 5.83335H4.40048Z" fill="#C93E33"/>
<path fill-rule="evenodd" clip-rule="evenodd" d="M5.4165 14.1667C6.5671 14.1667 7.49984 15.0994 7.49984 16.25C7.49984 17.4006 6.5671 18.3334 5.4165 18.3334C4.26591 18.3334 3.33317 17.4006 3.33317 16.25C3.33317 15.0994 4.26591 14.1667 5.4165 14.1667ZM5.4165 15.8334C5.18639 15.8334 4.99984 16.0199 4.99984 16.25C4.99984 16.4801 5.18639 16.6667 5.4165 16.6667C5.64662 16.6667 5.83317 16.4801 5.83317 16.25C5.83317 16.0199 5.64662 15.8334 5.4165 15.8334Z" fill="#C93E33"/>
<path fill-rule="evenodd" clip-rule="evenodd" d="M16.2498 14.1667C17.4004 14.1667 18.3332 15.0994 18.3332 16.25C18.3332 17.4006 17.4004 18.3334 16.2498 18.3334C15.0992 18.3334 14.1665 17.4006 14.1665 16.25C14.1665 15.0994 15.0992 14.1667 16.2498 14.1667ZM15.8332 16.25C15.8332 16.0199 16.0197 15.8334 16.2498 15.8334C16.48 15.8334 16.6665 16.0199 16.6665 16.25C16.6665 16.4801 16.48 16.6667 16.2498 16.6667C16.0197 16.6667 15.8332 16.4801 15.8332 16.25Z" fill="#C93E33"/>
</svg>
